<svg xmlns="http://www.w3.org/2000/svg" width="95" height="83" viewBox="0 0 95 83">
  <g id="Brightness-hover" transform="translate(0.001 -0.433)">
    <g id="Rectangle_1154" data-name="Rectangle 1154" transform="translate(-0.001 0.433)" fill="#003655" stroke="#02598b" stroke-width="2">
      <rect width="95" height="83" rx="8" stroke="none"/>
      <rect x="1" y="1" width="93" height="81" rx="7" fill="none"/>
    </g>
    <text id="Brightness" transform="translate(45.999 75.433)" fill="#ddd" font-size="13" font-family="Poppins-Regular, Poppins"><tspan x="-33.904" y="0">Brightness</tspan></text>
    <path id="Icon_metro-brightness" data-name="Icon metro-brightness" d="M23.473,12.379A10.451,10.451,0,1,0,33.924,22.83,10.451,10.451,0,0,0,23.473,12.379Zm0,16.983V16.3a6.532,6.532,0,0,1,0,13.064Zm0,6.532a2.613,2.613,0,0,1,2.613,2.613V41.12a2.613,2.613,0,0,1-5.226,0V38.507A2.613,2.613,0,0,1,23.473,35.894Zm0-26.128A2.613,2.613,0,0,1,20.86,7.154V4.541a2.613,2.613,0,0,1,5.226,0V7.154A2.613,2.613,0,0,1,23.473,9.766Zm18.29,10.451a2.613,2.613,0,0,1,0,5.226H39.15a2.613,2.613,0,0,1,0-5.226h2.613ZM10.409,22.83A2.613,2.613,0,0,1,7.8,25.443H5.183a2.613,2.613,0,0,1,0-5.226H7.8A2.613,2.613,0,0,1,10.409,22.83Zm26,9.238,1.848,1.848a2.613,2.613,0,1,1-3.7,3.7l-1.848-1.848a2.613,2.613,0,1,1,3.7-3.7ZM10.54,13.593,8.693,11.745a2.613,2.613,0,0,1,3.7-3.7L14.235,9.9a2.613,2.613,0,1,1-3.7,3.7Zm25.865,0a2.613,2.613,0,0,1-3.7-3.7L34.558,8.05a2.613,2.613,0,0,1,3.7,3.7ZM10.54,32.068a2.613,2.613,0,0,1,3.695,3.7l-1.847,1.848a2.613,2.613,0,0,1-3.7-3.7Z" transform="translate(23.877 10.869)" fill="#d8d8d8" stroke="#001520" stroke-width="1"/>
  </g>
</svg>
