<svg xmlns="http://www.w3.org/2000/svg" width="94" height="84" viewBox="0 0 94 84">
  <g id="Free_Hand-hover" data-name="Free Hand-hover" transform="translate(-0.496 0.416)">
    <g id="Rectangle_1154" data-name="Rectangle 1154" transform="translate(0.496 -0.416)"  stroke="#02598b" stroke-width="2">
      <rect width="93" height="83" rx="8" stroke="none"/>
      <rect x="1" y="1" width="91" height="81" rx="7" fill="none"/>
    </g>
    <text id="Free_Hand" data-name="Free Hand" transform="translate(47.496 76.584)" fill="#ddd" font-size="14" font-family="Poppins-Regular, Poppins"><tspan x="-27.941" y="0">Free Hand</tspan></text>
    <g id="draw-svgrepo-com" transform="translate(33.921 11.944)">
      <path id="Path_673" data-name="Path 673" d="M89.538,26.28a6.614,6.614,0,0,0-2.762-4.622,6.289,6.289,0,0,0-2.83-1.006A5.181,5.181,0,0,0,79.691,18.5a6.3,6.3,0,0,0-1.149.108,5.218,5.218,0,0,0-4.009-1.8h-.088l-.007-5.761A4.37,4.37,0,0,0,73,7.725a4.444,4.444,0,0,0-2.288-1.059,3.715,3.715,0,0,1,1.162-2.425c.73-.568,1.9-.655,3.475-.256,3.183.8,6.421,1.05,8.548-2.574a.938.938,0,0,0-1.618-.95c-1.26,2.148-2.953,2.593-6.47,1.7-2.166-.548-3.877-.348-5.087.594a5.68,5.68,0,0,0-1.917,4,4.407,4.407,0,0,0-2,1.133,4.355,4.355,0,0,0-1.25,3.161L65.565,19l.007,5.646a4.771,4.771,0,0,0-2.387,2.932c-.586,1.992-.119,4.557,1.428,7.843a38.185,38.185,0,0,0,2.824,4.916l.259,3.451a2.983,2.983,0,0,0,2.962,2.748l12.3-.015A2.979,2.979,0,0,0,85.9,43.94l.478-3.637A19.485,19.485,0,0,0,89.538,26.28ZM84.7,39.429a1.1,1.1,0,0,0-.168.453l-.5,3.814a1.106,1.106,0,0,1-1.083.965l-12.293.029h0a1.106,1.106,0,0,1-1.091-1.026L69.291,40a1.1,1.1,0,0,0-.189-.541c-1.125-1.635-7.408-11.177-2.32-13.3a1.088,1.088,0,0,0,.667-1.006c0-2.6-.013-11.219-.017-14.089a2.565,2.565,0,1,1,5.131-.007l.008,6.612a1.091,1.091,0,0,0,1.262,1.079,4.51,4.51,0,0,1,.7-.056,3.34,3.34,0,0,1,2.827,1.453,1.073,1.073,0,0,0,.874.44,1.133,1.133,0,0,0,.288-.037,4.614,4.614,0,0,1,1.17-.158,3.336,3.336,0,0,1,2.942,1.67.949.949,0,0,0,.768.442c1.109.04,3.682.526,4.287,4.1C88.248,29.906,87.99,34.351,84.7,39.429Z" transform="translate(-62.94 0.001)" fill="#ddd"/>
    </g>
  </g>
</svg>
