<svg xmlns="http://www.w3.org/2000/svg" width="95" height="84" viewBox="0 0 95 84">
  <g id="Length-hover" transform="translate(0.498 0.304)">
    <g id="Rectangle_1154" data-name="Rectangle 1154" transform="translate(-0.498 -0.304)"  stroke="#02598b" stroke-width="2">
      <rect width="94" height="83" rx="8" stroke="none"/>
      <rect x="1" y="1" width="92" height="81" rx="7" fill="none"/>
    </g>
    <text id="Length" transform="translate(46.502 75.696)" fill="#ddd" font-size="13" font-family="Poppins-Regular, Poppins"><tspan x="-21.918" y="0">Length</tspan></text>
    <path id="Icon_awesome-ruler" data-name="Icon awesome-ruler" d="M49.247,12.838,43.08,2.341a2.493,2.493,0,0,0-3.37-.891L34.365,4.479l4.625,7.878a.6.6,0,0,1-.225.829l-1.069.6a.619.619,0,0,1-.844-.225L32.227,5.7,27.951,8.12l2.161,3.672a.6.6,0,0,1-.225.829l-1.069.6A.619.619,0,0,1,27.974,13L25.813,9.336l-4.276,2.425,4.633,7.878a.6.6,0,0,1-.225.829l-1.069.6a.619.619,0,0,1-.844-.225L19.406,12.97,15.13,15.394l2.161,3.672a.6.6,0,0,1-.225.829L16,20.5a.619.619,0,0,1-.844-.225L12.992,16.6,8.716,19.02,13.34,26.9a.6.6,0,0,1-.225.829l-1.069.6a.619.619,0,0,1-.844-.225L6.577,20.252,1.232,23.281A2.409,2.409,0,0,0,.326,26.6L6.492,37.1a2.493,2.493,0,0,0,3.37.891L48.348,16.154A2.4,2.4,0,0,0,49.247,12.838Z" transform="translate(22.563 15.258)" fill="#ddd"/>
  </g>
</svg>
