<svg xmlns="http://www.w3.org/2000/svg" width="94" height="84" viewBox="0 0 94 84">
  <g id="pan-hover" transform="translate(-0.496 0.455)">
    <g id="Rectangle_1154" data-name="Rectangle 1154" transform="translate(0.496 -0.455)"  stroke="#02598b" stroke-width="2">
      <rect width="94" height="84" rx="8" stroke="none"/>
      <rect x="1" y="1" width="92" height="82" rx="7" fill="none"/>
    </g>
    <text id="Pan" transform="translate(47.496 76.545)" fill="#ddd" font-size="14" font-family="Poppins-Regular, Poppins"><tspan x="-13.265" y="0">Pan</tspan></text>
    <g id="Icon_ionic-ios-expand" data-name="Icon ionic-ios-expand" transform="translate(27.301 13.65)">
      <path id="Path_666" data-name="Path 666" d="M9.554,7.424h8.114a1.448,1.448,0,0,0,1.451-1.451V5.951A1.448,1.448,0,0,0,17.668,4.5H5.951A1.448,1.448,0,0,0,4.5,5.951V17.668a1.448,1.448,0,0,0,1.451,1.451h.021a1.448,1.448,0,0,0,1.451-1.451V9.554L19.652,21.7a1.437,1.437,0,0,0,1.023.418,1.4,1.4,0,0,0,1.023-.428,1.45,1.45,0,0,0,0-2.047Z" transform="translate(-4.5 -4.5)" fill="#ddd"/>
      <path id="Path_667" data-name="Path 667" d="M35.8,4.5H24.088a1.448,1.448,0,0,0-1.451,1.451v.021a1.448,1.448,0,0,0,1.451,1.451H32.2L20.058,19.652A1.451,1.451,0,0,0,22.1,21.709L34.332,9.554v8.114a1.448,1.448,0,0,0,1.451,1.451H35.8a1.448,1.448,0,0,0,1.451-1.451V5.951A1.448,1.448,0,0,0,35.8,4.5Z" transform="translate(2.842 -4.5)" fill="#ddd"/>
      <path id="Path_668" data-name="Path 668" d="M20.675,19.631a1.437,1.437,0,0,0-1.023.418L7.424,32.2V24.09a1.448,1.448,0,0,0-1.451-1.451H5.951A1.448,1.448,0,0,0,4.5,24.09V35.806a1.448,1.448,0,0,0,1.451,1.451H17.668a1.448,1.448,0,0,0,1.451-1.451v-.021a1.448,1.448,0,0,0-1.451-1.451H9.554L21.7,22.106a1.451,1.451,0,0,0-1.023-2.475Z" transform="translate(-4.5 2.84)" fill="#ddd"/>
      <path id="Path_669" data-name="Path 669" d="M35.8,22.635h-.021a1.448,1.448,0,0,0-1.451,1.451V32.2L22.1,20.056a1.437,1.437,0,0,0-1.023-.418,1.4,1.4,0,0,0-1.023.428,1.45,1.45,0,0,0,0,2.047L32.2,34.331H24.088a1.448,1.448,0,0,0-1.451,1.451V35.8a1.448,1.448,0,0,0,1.451,1.451H35.8A1.448,1.448,0,0,0,37.256,35.8V24.087A1.448,1.448,0,0,0,35.8,22.635Z" transform="translate(2.842 2.844)" fill="#ddd"/>
    </g>
  </g>
</svg>
